<?xml version="1.0" encoding="UTF-8"?>
<svg width="32" height="32" viewBox="0 0 32 32" fill="none" xmlns="http://www.w3.org/2000/svg">
  <!-- Pixel art headphones in orange theme -->
  <style>
    path { fill: #f97316; }
    @media (prefers-color-scheme: dark) {
      path { fill: #f97316; }
    }
  </style>
  <!-- Pixel art headphones -->
  <path fill-rule="evenodd" clip-rule="evenodd" d="M16 4C10.4772 4 6 8.47715 6 14V22C6 23.1046 6.89543 24 8 24H10C11.1046 24 12 23.1046 12 22V18C12 16.8954 11.1046 16 10 16H8V14C8 9.58172 11.5817 6 16 6C20.4183 6 24 9.58172 24 14V16H22C20.8954 16 20 16.8954 20 18V22C20 23.1046 20.8954 24 22 24H24C25.1046 24 26 23.1046 26 22V14C26 8.47715 21.5228 4 16 4Z"/>
</svg> 